<?xml version="1.0" encoding="UTF-8"?>
<svg version="1.1" xmlns="http://www.w3.org/2000/svg" width="512" height="512">
<path d="M0 0 C19.64310634 16.50723368 34.95998326 37.87100875 38 64 C39.99753835 92.24845 35.21471559 117.53674035 16.73828125 139.71484375 C12.3523639 144.66668592 7.73220634 149.38009783 3 154 C3.21076172 154.65774414 3.42152344 155.31548828 3.63867188 155.99316406 C5.7406243 163.01368517 6.54627093 169.43563403 6.5 176.75 C6.49500488 177.79623535 6.49000977 178.8424707 6.48486328 179.92041016 C6.12197299 196.14536023 -0.2222614 209.72697868 -11.3359375 221.546875 C-27.00347747 235.97387661 -44.09024608 238.75757663 -64.60009766 238.63110352 C-66.7388315 238.63625199 -68.87756108 238.64354022 -71.01628113 238.65278625 C-76.78277289 238.67118777 -82.54879803 238.6584338 -88.31526995 238.63869596 C-94.37232466 238.6222191 -100.42935192 238.63113467 -106.48641968 238.63621521 C-116.65247995 238.6407254 -126.81835558 238.62493124 -136.984375 238.59692383 C-148.71279701 238.56485974 -160.44088648 238.56489801 -172.16933215 238.5821386 C-183.48720161 238.598038 -194.80494996 238.59124925 -206.12281418 238.57420158 C-210.92393624 238.56735578 -215.72496049 238.56833804 -220.52608109 238.57574654 C-226.18489546 238.58344465 -231.84333425 238.57116837 -237.50208473 238.54389763 C-239.57037428 238.53705028 -241.63869916 238.53687628 -243.70698738 238.54411316 C-264.72361266 238.6091407 -281.39179677 234.05406584 -297 219 C-309.92101544 204.31337997 -314.06566112 189.46978599 -313.19091797 170.34521484 C-312.76589616 165.12429476 -311.21695793 160.70443751 -309 156 C-308.525625 154.94683594 -308.05125 153.89367187 -307.5625 152.80859375 C-299.05914279 135.4952679 -284.08997786 122.54745791 -266 116 C-258.31091154 113.74602604 -251.00105758 112.58615219 -243 113 C-243.04125 111.783125 -243.0825 110.56625 -243.125 109.3125 C-243.02775894 88.56773951 -235.10466279 71.75603265 -221 57 C-220.47019531 56.39542969 -219.94039063 55.79085937 -219.39453125 55.16796875 C-206.73362835 41.27026814 -186.50819121 31.98240697 -168 30 C-165.8295483 29.97531656 -163.65849592 29.98686989 -161.48828125 30.02734375 C-150.38178222 30.8252795 -150.38178222 30.8252795 -140.05517578 27.78955078 C-136.93028709 24.63253988 -135.04641395 20.81680833 -133.06494141 16.88232422 C-124.46601757 1.68340107 -104.79105335 -8.38225032 -89 -14 C-88.3699707 -14.22445801 -87.73994141 -14.44891602 -87.09082031 -14.68017578 C-58.54332958 -24.26219032 -23.92078329 -18.10792726 0 0 Z " fill="#1975D1" transform="translate(346,194)"/>
<path d="M0 0 C19.64310634 16.50723368 34.95998326 37.87100875 38 64 C39.9979073 92.25366758 35.21579504 117.58517057 16.703125 139.75 C14.51559252 142.21647958 12.27978833 144.61888775 10 147 C9.40703125 147.64453125 8.8140625 148.2890625 8.203125 148.953125 C6.86810431 150.36745385 5.44220728 151.69514579 4 153 C3.01 153 2.02 153 1 153 C0.69449219 152.27296875 0.38898438 151.5459375 0.07421875 150.796875 C-6.84322421 135.59798624 -18.96621899 124.06740986 -34.2265625 117.2890625 C-41.28897176 114.87643822 -48.61912738 113.94435407 -56 113 C-56.11214844 111.65421875 -56.11214844 111.65421875 -56.2265625 110.28125 C-57.90724454 94.33124787 -63.08321541 81.61360381 -73 69 C-73.92232422 67.80310547 -73.92232422 67.80310547 -74.86328125 66.58203125 C-91.52959623 46.41828829 -116.80563366 35.53713529 -142 31 C-135.73766057 13.15395501 -117.39677988 -0.78614954 -101.08203125 -9.0390625 C-97.13705924 -10.92668147 -93.11914425 -12.53459293 -89 -14 C-88.3699707 -14.22445801 -87.73994141 -14.44891602 -87.09082031 -14.68017578 C-58.54332958 -24.26219032 -23.92078329 -18.10792726 0 0 Z " fill="#FE9F00" transform="translate(346,194)"/>
<path d="M0 0 C5.06421973 2.9671539 8.96495837 7.14957295 13.06567383 11.296875 C13.9166716 12.14737427 14.76766937 12.99787354 15.64445496 13.87414551 C17.43389588 15.66591872 19.21966475 17.46136587 21.00195312 19.26025391 C23.73314928 22.01512742 26.4775093 24.75635331 29.22387695 27.49609375 C30.96360422 29.24139543 32.70256348 30.98746307 34.44067383 32.734375 C35.26146927 33.55425903 36.08226471 34.37414307 36.92793274 35.21887207 C37.68599716 35.98646851 38.44406158 36.75406494 39.22509766 37.54492188 C40.22601189 38.55274719 40.22601189 38.55274719 41.24714661 39.58093262 C45.13597255 44.07537709 45.36087451 47.97230464 45.22973633 53.7578125 C44.74639666 58.07727836 43.64694221 60.09090238 40.92114258 63.515625 C35.93084386 67.48749541 31.96343533 67.97376964 25.66723633 68.046875 C18.38056478 66.63722019 13.1523996 60.05345357 8.12817383 55.0234375 C7.30032883 54.19987762 6.47248383 53.37631775 5.61955261 52.52780151 C3.87647517 50.79045047 2.1359901 49.05049508 0.39794922 47.30810547 C-2.25905989 44.64793122 -4.92912748 42.00136933 -7.6003418 39.35546875 C-9.29581371 37.66226949 -10.99050204 35.96828515 -12.68432617 34.2734375 C-13.4812236 33.48574982 -14.27812103 32.69806213 -15.09916687 31.88650513 C-19.91594115 27.0292521 -24.47119983 22.38059795 -24.57885742 15.140625 C-24.37804498 9.9631563 -22.49838168 6.35068638 -19.07885742 2.515625 C-13.48463751 -2.41228584 -6.66196643 -3.21185916 0 0 Z " fill="#202020" transform="translate(171.078857421875,132.484375)"/>
<path d="M0 0 C4.44248593 2.4972554 6.99464352 5.75849415 8.8125 10.5 C9.87820383 15.98884626 9.06094088 19.61131034 6.22447205 24.45918274 C3.33551502 28.63478478 -0.36959524 32.08580575 -3.96875 35.64453125 C-4.81924927 36.49552902 -5.66974854 37.34652679 -6.54602051 38.22331238 C-8.33779372 40.0127533 -10.13324087 41.79852217 -11.93212891 43.58081055 C-14.68700242 46.3120067 -17.42822831 49.05636672 -20.16796875 51.80273438 C-21.91327043 53.54246164 -23.65933807 55.2814209 -25.40625 57.01953125 C-26.22613403 57.84032669 -27.04601807 58.66112213 -27.89074707 59.50679016 C-28.65834351 60.26485458 -29.42593994 61.02291901 -30.21679688 61.80395508 C-31.22462219 62.80486931 -31.22462219 62.80486931 -32.25280762 63.82600403 C-36.74725209 67.71482997 -40.64417964 67.93973193 -46.4296875 67.80859375 C-50.74915336 67.32525409 -52.76277738 66.22579964 -56.1875 63.5 C-60.15937041 58.50970128 -60.64564464 54.54229275 -60.71875 48.24609375 C-59.30909519 40.9594222 -52.72532857 35.73125702 -47.6953125 30.70703125 C-46.45997269 29.46526375 -46.45997269 29.46526375 -45.19967651 28.19841003 C-43.46232547 26.45533259 -41.72237008 24.71484752 -39.97998047 22.97680664 C-37.31980622 20.31979753 -34.67324433 17.64972994 -32.02734375 14.97851562 C-30.33414449 13.28304371 -28.64016015 11.58835538 -26.9453125 9.89453125 C-26.15762482 9.09763382 -25.36993713 8.30073639 -24.55838013 7.47969055 C-17.27852238 0.26050074 -10.21262784 -4.32738468 0 0 Z " fill="#202020" transform="translate(420.1875,132.5)"/>
<path d="M0 0 C1.30904297 -0.0038269 2.61808594 -0.00765381 3.96679688 -0.01159668 C6.73066196 -0.01747605 9.49400802 -0.00898041 12.2578125 0.00976562 C15.78862831 0.03255558 19.31822777 0.01942391 22.84899902 -0.00452423 C26.23276177 -0.02250956 29.61620276 -0.00989232 33 0 C34.89395508 -0.01214539 34.89395508 -0.01214539 36.82617188 -0.02453613 C47.68018545 0.09130219 47.68018545 0.09130219 52.5 4.53125 C56.12833663 8.35055172 56.81000458 11.41404006 57 16.53125 C56.81000458 21.64845994 56.12833663 24.71194828 52.5 28.53125 C46.74545317 33.83226051 40.50898761 33.11065296 33 33.0625 C31.69095703 33.0663269 30.38191406 33.07015381 29.03320312 33.07409668 C26.26933804 33.07997605 23.50599198 33.07148041 20.7421875 33.05273438 C17.21137169 33.02994442 13.68177223 33.04307609 10.15100098 33.06702423 C6.76723823 33.08500956 3.38379724 33.07239232 0 33.0625 C-1.26263672 33.07059692 -2.52527344 33.07869385 -3.82617188 33.08703613 C-14.68018545 32.97119781 -14.68018545 32.97119781 -19.5 28.53125 C-23.12833663 24.71194828 -23.81000458 21.64845994 -24 16.53125 C-23.81000458 11.41404006 -23.12833663 8.35055172 -19.5 4.53125 C-13.74545317 -0.76976051 -7.50898761 -0.04815296 0 0 Z " fill="#212121" transform="translate(423.5,255.46875)"/>
<path d="M0 0 C4.6413483 2.15491171 8.07137126 5.20342786 10 10 C10.59970881 14.49879151 10.56031934 18.96691901 10.53125 23.5 C10.5350769 24.80904297 10.53890381 26.11808594 10.54284668 27.46679688 C10.54872605 30.23066196 10.54023041 32.99400802 10.52148438 35.7578125 C10.49869442 39.28862831 10.51182609 42.81822777 10.53577423 46.34899902 C10.55375956 49.73276177 10.54114232 53.11620276 10.53125 56.5 C10.53934692 57.76263672 10.54744385 59.02527344 10.55578613 60.32617188 C10.43994781 71.18018545 10.43994781 71.18018545 6 76 C2.18069828 79.62833663 -0.88279006 80.31000458 -6 80.5 C-11.11720994 80.31000458 -14.18069828 79.62833663 -18 76 C-23.30101051 70.24545317 -22.57940296 64.00898761 -22.53125 56.5 C-22.5350769 55.19095703 -22.53890381 53.88191406 -22.54284668 52.53320312 C-22.54872605 49.76933804 -22.54023041 47.00599198 -22.52148438 44.2421875 C-22.49869442 40.71137169 -22.51182609 37.18177223 -22.53577423 33.65100098 C-22.55375956 30.26723823 -22.54114232 26.88379724 -22.53125 23.5 C-22.53934692 22.23736328 -22.54744385 20.97472656 -22.55578613 19.67382812 C-22.43994781 8.81981455 -22.43994781 8.81981455 -18 4 C-12.72867143 -1.00776214 -6.89190982 -0.92775709 0 0 Z " fill="#212121" transform="translate(294,80)"/>
<path d="M0 0 C5.01465714 2.95913179 8.94305019 6.63620125 13.04296875 10.7421875 C13.69324539 11.38817902 14.34352203 12.03417053 15.01350403 12.69973755 C16.37994854 14.06046506 17.74381521 15.42378565 19.10522461 16.78955078 C21.18283461 18.8703275 23.27343617 20.93740512 25.36523438 23.00390625 C26.69612286 24.33252208 28.02622796 25.6619232 29.35546875 26.9921875 C29.97737595 27.60488495 30.59928314 28.2175824 31.24003601 28.84884644 C35.63579194 33.291726 39.40260508 37.82519194 39.5 44.375 C39.29089032 49.54175173 37.51238964 53.23247309 34 57 C28.95516768 60.8185831 24.20085927 61.7874107 18 61 C12.20796751 58.19247254 8.0981446 54.52651543 3.60546875 49.96875 C2.93203934 49.29581909 2.25860992 48.62288818 1.56477356 47.92956543 C0.15195662 46.51442027 -1.25719878 45.095611 -2.6628418 43.67333984 C-4.81461679 41.49785989 -6.97952201 39.33612281 -9.14648438 37.17578125 C-10.52162896 35.79506279 -11.89600517 34.41357854 -13.26953125 33.03125 C-13.91533646 32.3863562 -14.56114166 31.7414624 -15.22651672 31.07702637 C-16.12336433 30.16588074 -16.12336433 30.16588074 -17.03833008 29.23632812 C-17.56348709 28.70656372 -18.0886441 28.17679932 -18.62971497 27.63098145 C-22.29056442 23.27365622 -22.43371038 19.27766361 -22.30859375 13.7578125 C-21.82525409 9.43834664 -20.72579964 7.42472262 -18 4 C-12.55483181 -0.33390937 -6.86995971 -1.32903915 0 0 Z " fill="#202020" transform="translate(390,352)"/>
</svg>
